HIERARCHY
ROOT Hips
{
	OFFSET 0.000000 83.214638 0.000000
	CHANNELS 6 Xposition Yposition Zposition Xrotation Yrotation Zrotation
	JOINT Pelvis
	{
		OFFSET 0.000000 0.000000 0.000000
		CHANNELS 3 Xrotation Yrotation Zrotation
		JOINT LeftUpLeg
		{
			OFFSET 8.479700 -4.795502 -0.379100
			CHANNELS 3 Xrotation Yrotation Zrotation
			JOINT LeftLeg
			{
				OFFSET 0.024144 -32.555107 0.112900
				CHANNELS 3 Xrotation Yrotation Zrotation
				JOINT LeftFoot
				{
					OFFSET -0.024144 -32.638630 -3.012600
					CHANNELS 3 Xrotation Yrotation Zrotation
					JOINT LeftToeBase
					{
						OFFSET 0.970200 -13.225400 11.864200
						CHANNELS 3 Xrotation Yrotation Zrotation
						End Site
						{
							OFFSET 0.000000 12.319262 0.000000
						}
					}
					JOINT LFootTongue
					{
						OFFSET 1.142400 -1.059800 6.665200
						CHANNELS 3 Xrotation Yrotation Zrotation
						End Site
						{
							OFFSET 0.000000 12.319262 0.000000
						}
					}
				}
				JOINT LeftPantLeg
				{
					OFFSET 0.918482 -16.533964 -2.284700
					CHANNELS 3 Xrotation Yrotation Zrotation
					End Site
					{
						OFFSET 0.350399 24.744368 0.000000
					}
				}
			}
		}
		JOINT RightUpLeg
		{
			OFFSET -8.479700 -4.795502 -0.379100
			CHANNELS 3 Xrotation Yrotation Zrotation
			JOINT RightLeg
			{
				OFFSET -0.023144 -32.555092 0.112900
				CHANNELS 3 Xrotation Yrotation Zrotation
				JOINT RightFoot
				{
					OFFSET 0.023144 -32.638641 -3.012700
					CHANNELS 3 Xrotation Yrotation Zrotation
					JOINT RightToeBase
					{
						OFFSET -0.970200 -13.225400 11.864200
						CHANNELS 3 Xrotation Yrotation Zrotation
						End Site
						{
							OFFSET 0.000000 12.319244 0.000000
						}
					}
					JOINT RFootTongue
					{
						OFFSET -1.142200 -1.059800 6.665200
						CHANNELS 3 Xrotation Yrotation Zrotation
						End Site
						{
							OFFSET 0.000000 12.319243 0.000000
						}
					}
				}
				JOINT RightPantLeg
				{
					OFFSET -0.919482 -16.533978 -2.284800
					CHANNELS 3 Xrotation Yrotation Zrotation
					End Site
					{
						OFFSET -0.350400 24.744419 0.000000
					}
				}
			}
		}
	}
	JOINT Spine
	{
		OFFSET 0.000000 7.722000 1.166200
		CHANNELS 3 Xrotation Yrotation Zrotation
		JOINT Spine1
		{
			OFFSET 0.000000 12.024101 0.248800
			CHANNELS 3 Xrotation Yrotation Zrotation
			JOINT Spine2
			{
				OFFSET 0.000000 11.502998 -0.491200
				CHANNELS 3 Xrotation Yrotation Zrotation
				JOINT Neck
				{
					OFFSET 0.000000 18.430702 -3.123100
					CHANNELS 3 Xrotation Yrotation Zrotation
					JOINT Head
					{
						OFFSET 0.000000 9.051102 1.034000
						CHANNELS 3 Xrotation Yrotation Zrotation
						JOINT HairB
						{
							OFFSET 0.208400 24.786102 24.822300
							CHANNELS 3 Xrotation Yrotation Zrotation
							End Site
							{
								OFFSET 0.000000 32.263779 0.000000
							}
						}
						JOINT HairA
						{
							OFFSET -7.081100 24.428299 23.196600
							CHANNELS 3 Xrotation Yrotation Zrotation
							End Site
							{
								OFFSET 0.000000 32.263779 0.000000
							}
						}
						JOINT Hat
						{
							OFFSET 16.728800 15.048294 -15.439601
							CHANNELS 3 Xrotation Yrotation Zrotation
							End Site
							{
								OFFSET 0.000000 32.263779 0.000000
							}
						}
					}
				}
				JOINT LeftShoulder
				{
					OFFSET 6.197800 13.665199 -4.064700
					CHANNELS 3 Xrotation Yrotation Zrotation
					JOINT LeftArm
					{
						OFFSET 7.778100 -0.187103 -1.709300
						CHANNELS 3 Xrotation Yrotation Zrotation
						JOINT LeftForeArm
						{
							OFFSET 22.049376 0.000000 0.000000
							CHANNELS 3 Xrotation Yrotation Zrotation
							JOINT LeftHand
							{
								OFFSET 23.009392 0.000000 0.000000
								CHANNELS 3 Xrotation Yrotation Zrotation
								JOINT LeftHandThumb1
								{
									OFFSET 3.507191 -2.063065 3.133727
									CHANNELS 3 Xrotation Yrotation Zrotation
									JOINT LeftHandThumb2
									{
										OFFSET 3.101337 -1.790558 1.790558
										CHANNELS 3 Xrotation Yrotation Zrotation
										JOINT LeftHandThumb3
										{
											OFFSET 3.058640 -1.765907 1.765906
											CHANNELS 3 Xrotation Yrotation Zrotation
											End Site
											{
												OFFSET -0.415260 3.926476 -0.049563
											}
										}
									}
								}
								JOINT LeftHandIndex1
								{
									OFFSET 11.334419 -0.901459 3.706815
									CHANNELS 3 Xrotation Yrotation Zrotation
									JOINT LeftHandIndex2
									{
										OFFSET 3.283112 0.000000 0.000000
										CHANNELS 3 Xrotation Yrotation Zrotation
										JOINT LeftHandIndex3
										{
											OFFSET 3.323853 0.000000 0.000000
											CHANNELS 3 Xrotation Yrotation Zrotation
											End Site
											{
												OFFSET -1.135597 3.097809 0.402452
											}
										}
									}
								}
								JOINT LeftHandMiddle1
								{
									OFFSET 11.335861 0.000000 0.000000
									CHANNELS 3 Xrotation Yrotation Zrotation
									JOINT LeftHandMiddle2
									{
										OFFSET 3.410492 0.000000 0.000000
										CHANNELS 3 Xrotation Yrotation Zrotation
										JOINT LeftHandMiddle3
										{
											OFFSET 3.312172 0.000000 0.000000
											CHANNELS 3 Xrotation Yrotation Zrotation
											End Site
											{
												OFFSET -1.150200 3.080154 0.400270
											}
										}
									}
								}
								JOINT LeftHandRing1
								{
									OFFSET 11.514786 -0.013176 -3.003090
									CHANNELS 3 Xrotation Yrotation Zrotation
									JOINT LeftHandRing2
									{
										OFFSET 3.053307 0.000000 0.000000
										CHANNELS 3 Xrotation Yrotation Zrotation
										JOINT LeftHandRing3
										{
											OFFSET 3.295807 0.000000 0.000000
											CHANNELS 3 Xrotation Yrotation Zrotation
											End Site
											{
												OFFSET -1.281006 3.013344 0.375733
											}
										}
									}
								}
								JOINT LeftHandPinky1
								{
									OFFSET 10.518692 -0.960396 -5.730441
									CHANNELS 3 Xrotation Yrotation Zrotation
									JOINT LeftHandPinky2
									{
										OFFSET 2.861649 0.000000 0.000000
										CHANNELS 3 Xrotation Yrotation Zrotation
										JOINT LeftHandPinky3
										{
											OFFSET 2.863380 0.000000 0.000000
											CHANNELS 3 Xrotation Yrotation Zrotation
											End Site
											{
												OFFSET -0.843597 2.711159 0.369971
											}
										}
									}
								}
							}
							JOINT LSleeve
							{
								OFFSET 6.676277 -0.344902 -1.011730
								CHANNELS 3 Xrotation Yrotation Zrotation
								End Site
								{
									OFFSET 0.000000 14.885353 0.000000
								}
							}
						}
					}
				}
				JOINT RightShoulder
				{
					OFFSET -6.197800 13.665199 -4.064700
					CHANNELS 3 Xrotation Yrotation Zrotation
					JOINT RightArm
					{
						OFFSET -7.778100 -0.187103 -1.709300
						CHANNELS 3 Xrotation Yrotation Zrotation
						JOINT RightForeArm
						{
							OFFSET -22.049376 0.000000 0.000000
							CHANNELS 3 Xrotation Yrotation Zrotation
							JOINT RightHand
							{
								OFFSET -23.009392 0.000000 0.000000
								CHANNELS 3 Xrotation Yrotation Zrotation
								JOINT RightHandThumb1
								{
									OFFSET -3.507191 -2.063065 3.133727
									CHANNELS 3 Xrotation Yrotation Zrotation
									JOINT RightHandThumb2
									{
										OFFSET -3.101337 -1.790558 1.790558
										CHANNELS 3 Xrotation Yrotation Zrotation
										JOINT RightHandThumb3
										{
											OFFSET -3.058640 -1.765907 1.765906
											CHANNELS 3 Xrotation Yrotation Zrotation
											End Site
											{
												OFFSET 0.415260 3.926476 -0.049563
											}
										}
									}
								}
								JOINT RightHandIndex1
								{
									OFFSET -11.334419 -0.901459 3.706815
									CHANNELS 3 Xrotation Yrotation Zrotation
									JOINT RightHandIndex2
									{
										OFFSET -3.283112 0.000000 0.000000
										CHANNELS 3 Xrotation Yrotation Zrotation
										JOINT RightHandIndex3
										{
											OFFSET -3.323853 0.000000 0.000000
											CHANNELS 3 Xrotation Yrotation Zrotation
											End Site
											{
												OFFSET 1.135597 3.097809 0.402452
											}
										}
									}
								}
								JOINT RightHandMiddle1
								{
									OFFSET -11.335861 0.000000 0.000000
									CHANNELS 3 Xrotation Yrotation Zrotation
									JOINT RightHandMiddle2
									{
										OFFSET -3.410492 0.000000 0.000000
										CHANNELS 3 Xrotation Yrotation Zrotation
										JOINT RightHandMiddle3
										{
											OFFSET -3.312172 0.000000 0.000000
											CHANNELS 3 Xrotation Yrotation Zrotation
											End Site
											{
												OFFSET 1.150200 3.080154 0.400270
											}
										}
									}
								}
								JOINT RightHandRing1
								{
									OFFSET -11.514786 -0.013176 -3.003090
									CHANNELS 3 Xrotation Yrotation Zrotation
									JOINT RightHandRing2
									{
										OFFSET -3.053307 0.000000 0.000000
										CHANNELS 3 Xrotation Yrotation Zrotation
										JOINT RightHandRing3
										{
											OFFSET -3.295807 0.000000 0.000000
											CHANNELS 3 Xrotation Yrotation Zrotation
											End Site
											{
												OFFSET 1.281006 3.013344 0.375733
											}
										}
									}
								}
								JOINT RightHandPinky1
								{
									OFFSET -10.518692 -0.960396 -5.730441
									CHANNELS 3 Xrotation Yrotation Zrotation
									JOINT RightHandPinky2
									{
										OFFSET -2.861649 0.000000 0.000000
										CHANNELS 3 Xrotation Yrotation Zrotation
										JOINT RightHandPinky3
										{
											OFFSET -2.863380 0.000000 0.000000
											CHANNELS 3 Xrotation Yrotation Zrotation
											End Site
											{
												OFFSET 0.843597 2.711159 0.369971
											}
										}
									}
								}
							}
							JOINT RSleeve
							{
								OFFSET -6.676277 -0.344902 -1.011730
								CHANNELS 3 Xrotation Yrotation Zrotation
								End Site
								{
									OFFSET 0.000000 14.885353 0.000000
								}
							}
						}
					}
				}
				JOINT Backpack
				{
					OFFSET 0.000000 -2.471497 36.677502
					CHANNELS 3 Xrotation Yrotation Zrotation
					End Site
					{
						OFFSET 0.000000 20.427315 0.000000
					}
				}
				JOINT Hood
				{
					OFFSET 0.000000 18.754097 -10.431000
					CHANNELS 3 Xrotation Yrotation Zrotation
					JOINT Hood1
					{
						OFFSET 0.000000 -5.011002 -7.685901
						CHANNELS 3 Xrotation Yrotation Zrotation
						End Site
						{
							OFFSET 0.000000 9.175140 0.000000
						}
					}
				}
				JOINT LHoodieString
				{
					OFFSET 5.250500 16.397697 3.089900
					CHANNELS 3 Xrotation Yrotation Zrotation
					JOINT LHoodieString1
					{
						OFFSET 0.257700 -6.364304 3.694600
						CHANNELS 3 Xrotation Yrotation Zrotation
						JOINT LHoodieString2
						{
							OFFSET 0.000000 -9.643799 2.679100
							CHANNELS 3 Xrotation Yrotation Zrotation
							End Site
							{
								OFFSET 0.000000 10.009018 0.000000
							}
						}
					}
				}
				JOINT RHoodieString
				{
					OFFSET -5.250500 16.397697 3.089900
					CHANNELS 3 Xrotation Yrotation Zrotation
					JOINT RHoodieString1
					{
						OFFSET -0.257700 -6.364304 3.694600
						CHANNELS 3 Xrotation Yrotation Zrotation
						JOINT RHoodieString2
						{
							OFFSET 0.000000 -9.643799 2.679100
							CHANNELS 3 Xrotation Yrotation Zrotation
							End Site
							{
								OFFSET 0.000000 10.009018 0.000000
							}
						}
					}
				}
			}
			JOINT LBackpack_Strap
			{
				OFFSET 15.223200 -7.719803 -6.610900
				CHANNELS 3 Xrotation Yrotation Zrotation
				End Site
				{
					OFFSET 0.000000 16.040596 0.000000
				}
			}
			JOINT RBackpack_Strap
			{
				OFFSET -15.223000 -7.719803 -6.610900
				CHANNELS 3 Xrotation Yrotation Zrotation
				End Site
				{
					OFFSET 0.000000 16.040596 0.000000
				}
			}
		}
	}
	JOINT BoyFacialAnim_Joint
	{
		OFFSET 1.000000 -82.208099 -1.550900
		CHANNELS 3 Xrotation Yrotation Zrotation
		End Site
		{
			OFFSET 0.000000 30.012791 0.000000
		}
	}
}
MOTION
Frames: 4
Frame Time: 0.033333
-0.075645 74.951263 -0.114286 -11.492831 -32.276103 -3.533497 0.000000 0.000000 -0.000000 -30.695608 29.257006 15.453479 74.817960 -9.917773 2.941509 16.241365 4.433663 15.779798 0.000001 0.000000 0.000001 0.000001 0.000000 0.000001 0.000000 -0.000001 0.000001 -25.420900 -2.259684 7.097475 51.251506 -5.431451 -10.310982 -16.386247 -0.243762 1.241663 0.000000 -0.000002 0.000000 0.000000 -0.000002 0.000000 -0.000000 0.000002 -0.000000 13.662436 -4.523306 6.466964 2.026185 -2.342328 0.827094 2.015419 -2.337414 0.867629 13.152121 13.393350 -6.449608 16.976324 9.989555 4.216569 -0.000001 0.000001 -0.000000 -0.000001 0.000001 -0.000000 -0.000001 0.000001 -0.000000 0.252787 -11.739856 -12.807359 -52.262698 -16.401595 -40.618346 0.000027 -60.457276 0.000026 -132.812127 -1.600931 24.363654 1.567995 0.456398 2.719343 19.473192 -1.474931 7.636917 -0.000003 -0.000000 0.000000 -1.882821 2.129430 -39.817015 2.947097 5.081741 -60.200522 0.000001 0.000001 -0.000002 0.405909 5.507044 -52.453145 3.387143 5.308616 -65.057470 -0.000002 0.000000 -0.000001 -0.074367 5.736804 -61.061420 4.422101 5.674479 -75.840385 0.000002 -0.000003 -0.000004 2.216806 7.072459 -64.435438 4.422626 5.674645 -75.845761 0.000000 -0.000000 -0.000000 -0.000001 -0.000001 0.000004 0.505175 5.257290 11.859099 -34.603313 63.980356 57.402645 0.000853 97.079753 -0.000869 -51.294379 -27.738710 -28.919233 8.377139 -4.904141 11.021988 21.620214 -18.183893 -18.379209 0.000000 -0.000000 0.000001 -1.101395 1.407123 15.159509 1.422361 -3.352190 45.974099 0.000000 0.000001 0.000005 3.413053 -7.186273 51.650256 6.296823 -4.359601 110.634667 0.000002 0.000001 0.000003 -3.349040 -2.600442 57.010575 5.440866 -4.590923 99.698154 0.000001 -0.000000 0.000000 -3.996448 -3.303939 64.593850 4.058851 -4.618679 82.610516 -0.000002 -0.000001 0.000002 -0.000001 -0.000001 -0.000000 0.000001 0.000000 0.000000 0.000001 0.000000 0.000000 0.000001 0.000000 0.000000 0.000001 0.000000 0.000000 0.000001 0.000000 0.000000 -0.000000 -0.000003 0.000001 0.000001 0.000000 0.000000 0.000001 0.000000 0.000000 -0.000000 -0.000003 0.000001 -0.000000 -0.000002 0.000000 -0.000000 -0.000002 0.000000 0.000000 0.000000 -0.000000 
-0.095430 74.948494 0.582382 -12.055183 -32.514637 -3.897033 -0.000001 -0.000001 -0.000000 -33.399495 27.010214 15.755500 75.499873 -9.918015 3.947224 17.459092 3.889147 13.633091 0.000002 -0.000001 0.000000 0.000002 -0.000001 0.000000 0.000002 0.000002 -0.000000 -24.529847 -1.789975 7.060241 51.533470 -5.568114 -10.389227 -17.110925 -0.315894 1.697438 0.000000 -0.000003 0.000000 0.000000 -0.000003 0.000000 -0.000001 0.000003 -0.000000 14.049499 -4.250817 6.372718 2.076126 -2.287587 0.818050 2.065182 -2.284573 0.851018 13.168360 13.405802 -6.519779 16.865351 10.021327 4.239447 -0.000001 0.000001 0.000002 -0.000001 0.000001 0.000002 -0.000001 0.000001 0.000002 0.252142 -11.720308 -12.827721 -52.548774 -16.722325 -40.895102 0.000054 -60.083596 0.000058 -132.597153 -1.527920 24.331290 1.567994 0.456393 2.719343 19.473192 -1.474926 7.636920 0.000001 0.000003 -0.000000 -1.993571 1.987580 -39.768712 2.956282 5.086970 -60.304143 -0.000000 -0.000001 -0.000002 0.354823 5.465096 -52.403117 3.394293 5.311918 -65.134528 0.000006 0.000001 -0.000001 -0.078535 5.730883 -61.011252 4.430734 5.676625 -75.927695 -0.000001 -0.000002 -0.000003 2.447568 7.175593 -64.118148 4.475238 5.687586 -76.377190 0.000000 -0.000001 -0.000000 -0.000000 0.000000 0.000000 0.504036 5.311521 11.893104 -34.320304 63.795907 56.918634 0.001182 97.122196 -0.001227 -51.441928 -27.630373 -28.904589 8.377139 -4.904140 11.021989 21.620214 -18.183891 -18.379209 0.000000 -0.000001 0.000001 -1.623876 -0.383765 28.623024 4.267621 -4.640877 85.196515 0.000001 0.000000 0.000000 2.439592 -6.348578 58.825660 6.571332 -4.246391 114.292335 0.000000 0.000001 -0.000002 -4.799069 -2.842118 64.121235 5.732037 -4.531702 103.358336 0.000001 0.000000 0.000004 -6.768469 -2.682536 68.120222 3.259061 -4.442812 72.512000 -0.000000 0.000000 0.000004 0.000002 -0.000002 -0.000001 0.000000 0.000002 -0.000000 0.000000 0.000002 -0.000000 0.000000 0.000002 -0.000000 0.000000 0.000002 -0.000000 0.000000 0.000002 -0.000001 0.000000 0.000000 0.000000 0.000000 0.000002 -0.000000 0.000000 0.000002 -0.000001 0.000000 0.000000 0.000000 -0.000000 0.000002 -0.000001 -0.000000 0.000002 -0.000001 -0.000001 -0.000001 -0.000000 
-0.122404 75.053581 1.270610 -12.568401 -32.761825 -4.111355 -0.000000 0.000000 -0.000000 -35.673245 25.028730 15.913455 75.383876 -9.927122 4.739626 16.286349 2.462750 13.159714 -0.000001 -0.000000 -0.000001 -0.000001 -0.000000 -0.000000 0.000004 0.000001 -0.000001 -23.515240 -1.692644 6.580734 51.472801 -5.759842 -10.367449 -17.738664 0.279079 2.080174 -0.000000 -0.000000 0.000000 -0.000000 -0.000000 0.000000 0.000001 -0.000001 0.000001 14.101786 -4.899363 6.256575 1.921078 -3.916794 1.219571 1.910488 -3.889940 1.335829 16.048329 13.884373 -8.890637 13.612189 10.255771 3.954041 -0.000000 -0.000001 0.000001 -0.000000 -0.000001 0.000001 -0.000000 -0.000001 0.000001 0.252687 -11.695613 -12.849573 -49.233691 -9.789767 -37.684896 0.000000 -71.394943 -0.000006 -131.449545 -5.699412 28.302627 1.567993 0.456398 2.719342 19.473190 -1.474930 7.636922 -0.000001 -0.000000 -0.000001 -1.882824 2.129434 -39.817008 2.947093 5.081741 -60.200509 -0.000004 -0.000000 -0.000004 0.405921 5.507047 -52.453141 3.387140 5.308619 -65.057470 0.000003 0.000002 -0.000001 -0.074381 5.736780 -61.061427 4.422081 5.674493 -75.840378 -0.000003 -0.000001 -0.000002 2.216820 7.072454 -64.435417 4.422639 5.674618 -75.845754 -0.000001 -0.000001 0.000007 -0.000003 0.000002 0.000002 0.502887 5.364274 11.928269 -32.388883 64.774160 56.228504 0.000096 99.632338 -0.000084 -51.498011 -27.511491 -27.477038 8.377139 -4.904141 11.021988 21.620214 -18.183895 -18.379211 0.000003 0.000000 -0.000001 -1.617237 -0.339921 28.299538 4.191315 -4.633867 84.252760 0.000001 0.000001 0.000000 1.392623 -5.880522 65.240396 6.806418 -4.132553 117.509307 0.000001 0.000000 0.000002 -6.135268 -3.373687 70.449276 5.984609 -4.464388 106.577992 -0.000002 0.000000 0.000002 -9.333526 -2.416453 71.263530 2.590640 -4.174516 63.632931 -0.000001 -0.000001 -0.000003 -0.000000 -0.000000 -0.000000 0.000001 -0.000001 0.000001 0.000001 -0.000001 0.000001 0.000001 -0.000001 0.000001 0.000001 -0.000001 0.000001 0.000001 -0.000001 0.000001 -0.000000 0.000001 0.000001 0.000001 -0.000001 0.000001 0.000001 -0.000001 0.000001 -0.000000 0.000001 0.000001 0.000001 -0.000001 -0.000001 0.000001 -0.000001 -0.000001 -0.000000 0.000000 -0.000000 
-0.153901 75.265694 1.933632 -13.016119 -33.012145 -4.161098 -0.000001 -0.000001 -0.000001 -37.340702 23.509113 15.889028 74.308258 -9.936091 5.645344 12.722813 0.859166 13.006284 0.000000 0.000001 0.000000 0.000000 0.000001 0.000000 0.000002 0.000001 -0.000000 -22.404943 -1.728050 5.845670 51.065677 -5.905995 -10.322257 -18.204571 1.107237 2.430796 -0.000000 0.000000 0.000000 -0.000000 0.000000 0.000000 0.000002 0.000002 -0.000000 14.161530 -5.299537 5.993261 1.831048 -5.003884 1.477224 1.817592 -4.960258 1.652376 16.911448 14.165409 -10.250096 10.211287 10.438333 3.958528 0.000001 -0.000002 0.000002 0.000001 -0.000002 0.000002 0.000001 -0.000002 0.000002 0.254659 -11.665131 -12.872885 -48.106641 -5.711685 -36.033476 0.000040 -76.104700 0.000047 -130.801251 -7.195172 30.069075 1.567994 0.456394 2.719342 19.473190 -1.474931 7.636922 -0.000001 0.000002 -0.000001 -1.011882 3.225270 -40.203026 2.876000 5.040531 -59.394703 0.000002 0.000000 -0.000004 0.805839 5.830351 -52.843985 3.331801 5.282636 -64.457807 0.000002 -0.000001 0.000004 -0.041796 5.782585 -61.451629 4.355059 5.657235 -75.161471 -0.000000 0.000001 -0.000000 0.382335 6.363265 -66.909845 4.018050 5.557509 -71.713373 -0.000003 0.000000 -0.000000 0.000000 -0.000002 0.000001 0.501765 5.414726 11.964296 -32.588987 65.870153 57.075427 0.000164 99.706910 -0.000185 -51.507198 -27.287874 -25.978872 8.377140 -4.904138 11.021990 21.620218 -18.183893 -18.379211 -0.000001 -0.000000 0.000001 -1.545009 0.050945 25.409456 3.517615 -4.515906 75.821554 0.000001 0.000000 0.000004 1.109551 -5.808069 66.850634 6.823539 -4.123608 117.747106 -0.000000 0.000001 0.000002 -6.470498 -3.555097 72.032623 6.003110 -4.458840 106.815962 -0.000001 0.000001 -0.000001 -9.987678 -2.393244 72.049173 2.543012 -4.150617 62.976769 -0.000001 -0.000002 0.000002 -0.000001 -0.000003 -0.000001 0.000001 0.000001 0.000000 0.000001 0.000001 0.000000 0.000001 0.000001 0.000000 0.000001 0.000001 0.000000 0.000001 0.000001 -0.000000 0.000001 0.000003 0.000000 0.000001 0.000001 0.000000 0.000001 0.000001 -0.000000 0.000001 0.000003 0.000000 -0.000000 -0.000003 -0.000000 -0.000000 -0.000003 -0.000000 -0.000001 -0.000001 -0.000001 
